<?xml version="1.0" encoding="utf-8"?>
<!-- Generator: Adobe Illustrator 23.0.3, SVG Export Plug-In . SVG Version: 6.00 Build 0)  -->
<svg version="1.2" baseProfile="tiny" id="Layer_1" xmlns="http://www.w3.org/2000/svg" xmlns:xlink="http://www.w3.org/1999/xlink"
	 x="0px" y="0px" viewBox="0 0 92.8 99.9" xml:space="preserve">
<path fill="none" d="M84.3,70c-0.8-1.6-1.5-3.4-2.3-5v-0.1c-6.9-14.9-14.3-30.1-21.9-45l-0.3-0.6c-0.8-1.5-1.6-3.1-2.4-4.6
	c-0.8-1.6-1.7-3.1-2.8-4.4c-2.1-2.4-4.9-3.7-8-3.7c-3.1,0-5.9,1.3-8,3.7c-1.1,1.3-2,2.8-2.8,4.4c-0.8,1.5-1.6,3.1-2.4,4.6l-0.3,0.6
	c-7.7,14.8-15.1,30-22,44.9L11,65c-0.8,1.7-1.6,3.4-2.3,5c-0.5,1.2-1,2.2-1.3,3.2c-1,2.8-1.2,5.3-0.9,7.8c0.7,5.2,4.2,9.7,9.1,11.7
	c2.3,0.9,4.9,1.3,7.6,1c2.5-0.3,5-1.1,7.6-2.6c3.6-2,7.3-5.1,11.4-9.7c-6.5-8.1-10.6-15.6-12.1-22.2c-0.8-3-0.9-5.9-0.5-8.5
	c0.4-2.5,1.3-4.8,2.7-6.8c3.1-4.4,8.3-7.1,14.1-7.1c5.8,0,11,2.6,14.1,7.1c1.4,2,2.3,4.3,2.7,6.8c0.3,2.6,0.2,5.4-0.5,8.5
	c-1.5,6.6-5.5,14-12.1,22.1C54.8,85.9,58.4,89,62,91c2.6,1.5,5.1,2.3,7.6,2.6c2.6,0.3,5.2,0,7.6-1c4.9-2,8.4-6.5,9.1-11.7
	c0.4-2.6,0.1-5.1-0.7-7.7C85.3,72.2,84.8,71.2,84.3,70z"/>
<path fill="none" d="M56.8,51.5c-0.2-1.6-0.8-3-1.6-4.2c-1.8-2.8-5.1-4.4-8.8-4.4c-3.7,0-6.9,1.7-8.8,4.4c-0.8,1.2-1.4,2.6-1.6,4.2
	c-0.3,1.8-0.2,3.8,0.3,6.1C37.5,63,41,69.4,46.4,76.2c5.4-6.9,8.9-13.3,10.1-18.6C57,55.4,57.1,53.3,56.8,51.5z"/>
<path fill="#FF5A5F" d="M90,67.4c-0.8-1.8-1.6-3.5-2.3-5.1l-0.1-0.1C80.7,47.2,73.3,32,65.5,17l-0.3-0.6c-0.8-1.5-1.6-3.1-2.4-4.7
	c-1-1.8-2-3.7-3.6-5.5C56,2.2,51.4,0,46.5,0c-5,0-9.5,2.2-12.8,6c-1.5,1.8-2.6,3.7-3.6,5.5c-0.8,1.6-1.6,3.2-2.4,4.7l-0.3,0.6
	C19.7,31.8,12.2,47,5.3,62l-0.1,0.2c-0.7,1.6-1.5,3.3-2.3,5.1c-0.5,1.1-1,2.3-1.5,3.6c-1.3,3.7-1.7,7.2-1.2,10.8
	c1.1,7.5,6.1,13.8,13,16.6c2.6,1.1,5.3,1.6,8.1,1.6c0.8,0,1.8-0.1,2.6-0.2c3.3-0.4,6.7-1.5,10-3.4c4.1-2.3,8-5.6,12.4-10.4
	c4.4,4.8,8.4,8.1,12.4,10.4c3.3,1.9,6.7,3,10,3.4c0.8,0.1,1.8,0.2,2.6,0.2c2.8,0,5.6-0.5,8.1-1.6c7-2.8,11.9-9.2,13-16.6
	c0.8-3.5,0.4-7-0.9-10.7C91,69.8,90.5,68.5,90,67.4z M46.4,76.2C41,69.4,37.5,63,36.3,57.6c-0.5-2.3-0.6-4.3-0.3-6.1
	c0.2-1.6,0.8-3,1.6-4.2c1.9-2.7,5.1-4.4,8.8-4.4c3.7,0,7,1.6,8.8,4.4c0.8,1.2,1.4,2.6,1.6,4.2c0.3,1.8,0.2,3.9-0.3,6.1
	C55.3,62.9,51.8,69.3,46.4,76.2z M86.3,80.9c-0.7,5.2-4.2,9.7-9.1,11.7c-2.4,1-5,1.3-7.6,1c-2.5-0.3-5-1.1-7.6-2.6
	c-3.6-2-7.2-5.1-11.4-9.7c6.6-8.1,10.6-15.5,12.1-22.1c0.7-3.1,0.8-5.9,0.5-8.5c-0.4-2.5-1.3-4.8-2.7-6.8c-3.1-4.5-8.3-7.1-14.1-7.1
	c-5.8,0-11,2.7-14.1,7.1c-1.4,2-2.3,4.3-2.7,6.8c-0.4,2.6-0.3,5.5,0.5,8.5c1.5,6.6,5.6,14.1,12.1,22.2c-4.1,4.6-7.8,7.7-11.4,9.7
	c-2.6,1.5-5.1,2.3-7.6,2.6c-2.7,0.3-5.3-0.1-7.6-1c-4.9-2-8.4-6.5-9.1-11.7c-0.3-2.5-0.1-5,0.9-7.8c0.3-1,0.8-2,1.3-3.2
	c0.7-1.6,1.5-3.3,2.3-5l0.1-0.2c6.9-14.9,14.3-30.1,22-44.9l0.3-0.6c0.8-1.5,1.6-3.1,2.4-4.6c0.8-1.6,1.7-3.1,2.8-4.4
	c2.1-2.4,4.9-3.7,8-3.7c3.1,0,5.9,1.3,8,3.7c1.1,1.3,2,2.8,2.8,4.4c0.8,1.5,1.6,3.1,2.4,4.6l0.3,0.6c7.6,14.9,15,30.1,21.9,45V65
	c0.8,1.6,1.5,3.4,2.3,5c0.5,1.2,1,2.2,1.3,3.2C86.4,75.8,86.7,78.3,86.3,80.9z"/>
</svg>
